<svg width="272" height="34" viewBox="0 0 272 34" fill="none" xmlns="http://www.w3.org/2000/svg">
<g clip-path="url(#clip0_19_410)">
<path d="M175.741 12.3906H146.992V16.3708H175.741V12.3906Z" fill="white"/>
<path d="M63.2799 12.3906H40.3193L39.4688 13.0285V33.5096H45.8246V25.8293L46.4314 25.2842H63.2808C67.5351 25.2842 69.5295 24.1364 69.5295 21.1916V16.489C69.5287 13.5392 67.5349 12.3906 63.2799 12.3906ZM63.2799 19.9626C63.2799 21.35 62.3645 21.6382 60.37 21.6382H46.5009L45.8238 20.9781V16.5908L46.4306 16.0342H60.37C62.3645 16.0342 63.2799 16.319 63.2799 17.7131V19.9626Z" fill="white"/>
<path d="M81.126 16.265L86.595 24.3L86.292 25.0783H74.1969L71.1094 28.8868H89.114L90.362 29.6487L93.157 33.5147H100.431L84.487 12.1289" fill="white"/>
<path d="M153.455 29.359V23.6745L154.11 23.108H166.278V19.4883H146.992V33.5181H175.441V29.9156H154.138" fill="white"/>
<path d="M114.92 16.1552H138.081C137.724 13.2022 135.896 12.3828 131.26 12.3828H114.673C109.442 12.3828 107.773 13.4066 107.773 17.376V28.5127C107.773 32.4863 109.442 33.51 114.673 33.51H131.26C135.964 33.51 137.766 32.6242 137.888 29.5611H114.92L114.238 28.9183V16.5854" fill="white"/>
<path d="M24.0165 20.6148H7.16722L6.67112 20.0672V16.4533L7.16482 16.0707H29.8789L30.1892 15.3096C29.4155 13.3138 27.4119 12.3828 23.6915 12.3828H7.91312C2.68532 12.3828 1.01422 13.4066 1.01422 17.376V19.7109C1.01422 23.6853 2.68532 24.7074 7.91312 24.7074H24.7248L25.2529 25.1721V28.9503L24.8222 29.5397H5.59192V29.5217H0.554918C0.554918 29.5217 -0.0214804 29.8115 0.00061965 29.9469C0.43052 32.7235 2.31692 33.51 6.83322 33.51H24.0165C29.2435 33.51 30.9646 32.4863 30.9646 28.5127V25.6039C30.9646 21.6369 29.2435 20.6148 24.0165 20.6148Z" fill="white"/>
<path d="M193.822 12.3047H184.365L183.852 13.2841L194.355 20.9611C196.344 19.806 198.509 18.6353 200.864 17.4802" fill="white"/>
<path d="M193.822 12.3047H184.365L183.852 13.2841L194.355 20.9611C196.344 19.806 198.509 18.6353 200.864 17.4802" fill="white"/>
<path d="M202.289 26.7726L211.521 33.5228H221.094L221.49 32.6287L207.705 22.5117C205.874 23.859 204.066 25.2817 202.289 26.7726Z" fill="white"/>
<path d="M202.289 26.7726L211.521 33.5228H221.094L221.49 32.6287L207.705 22.5117C205.874 23.859 204.066 25.2817 202.289 26.7726Z" fill="white"/>
<path d="M192.413 33.5011H183.856L183.133 32.3656C188.951 26.7329 214.973 2.5869 271.536 0C271.536 0 224.059 1.6058 192.413 33.5011Z" fill="white"/>
<path d="M192.413 33.5011H183.856L183.133 32.3656C188.951 26.7329 214.973 2.5869 271.536 0C271.536 0 224.059 1.6058 192.413 33.5011Z" fill="white"/>
</g>
<defs>
<clipPath id="clip0_19_410">
<rect width="272" height="34" fill="white"/>
</clipPath>
</defs>
</svg>
